<svg width="42" height="41" viewBox="0 0 42 41" fill="none" xmlns="http://www.w3.org/2000/svg">
<g clip-path="url(#clip0_391_267)">
<path d="M31.5 0H9.71875C4.41164 0 0.109375 4.30226 0.109375 9.60938V31.3906C0.109375 36.6977 4.41164 41 9.71875 41H31.5C36.8071 41 41.1094 36.6977 41.1094 31.3906V9.60938C41.1094 4.30226 36.8071 0 31.5 0Z" fill="white"/>
<path d="M31.5 0H9.71875C4.41164 0 0.109375 4.30226 0.109375 9.60938V31.3906C0.109375 36.6977 4.41164 41 9.71875 41H31.5C36.8071 41 41.1094 36.6977 41.1094 31.3906V9.60938C41.1094 4.30226 36.8071 0 31.5 0Z" fill="#1D9BF0"/>
<path d="M32.0721 14.64C32.0897 14.8942 32.0897 15.1484 32.0897 15.4049C32.0897 23.2201 26.1402 32.2334 15.2613 32.2334V32.2286C12.0475 32.2332 8.9002 31.3128 6.19531 29.5772C6.66265 29.6334 7.13223 29.6614 7.60309 29.6625C10.2668 29.6647 12.8539 28.7712 14.9487 27.1258C13.7145 27.1025 12.5184 26.6941 11.5277 25.9577C10.537 25.2213 9.80116 24.1937 9.4231 23.0186C10.3092 23.1895 11.2227 23.1546 12.0932 22.9167C9.33405 22.3592 7.34892 19.935 7.34892 17.1194V17.0445C8.17147 17.5026 9.09203 17.7565 10.0331 17.7847C7.43444 16.0478 6.63334 12.5905 8.20255 9.8874C9.68741 11.7146 11.54 13.209 13.6401 14.2736C15.7402 15.3382 18.0407 15.949 20.3922 16.0665C20.1577 15.0573 20.1924 14.0042 20.4926 13.0125C20.7929 12.0209 21.3482 11.1254 22.1032 10.4158C24.4853 8.17645 28.2319 8.29128 30.4712 10.6722C31.7956 10.4107 33.0658 9.9251 34.227 9.23636C33.7854 10.6058 32.8615 11.7682 31.627 12.5074C32.7995 12.3693 33.9444 12.0554 35.0234 11.5764C34.2297 12.7651 33.2303 13.8024 32.0721 14.64Z" fill="white"/>
</g>
<defs>
<clipPath id="clip0_391_267">
<rect width="41" height="41" fill="white" transform="translate(0.109375)"/>
</clipPath>
</defs>
</svg>
