<svg width="42" height="41" viewBox="0 0 42 41" fill="none" xmlns="http://www.w3.org/2000/svg">
<g clip-path="url(#clip0_391_246)">
<path d="M41.1094 20.5C41.1094 9.17824 31.9311 0 20.6094 0C9.28761 0 0.109375 9.17824 0.109375 20.5C0.109375 30.7321 7.60597 39.2131 17.4062 40.751V26.4258H12.2012V20.5H17.4062V15.9836C17.4062 10.8458 20.4668 8.00781 25.1495 8.00781C27.3923 8.00781 29.7383 8.4082 29.7383 8.4082V13.4531H27.1534C24.6067 13.4531 23.8125 15.0334 23.8125 16.6546V20.5H29.498L28.5892 26.4258H23.8125V40.751C33.6128 39.2131 41.1094 30.7322 41.1094 20.5Z" fill="#1877F2"/>
<path d="M28.5911 26.4258L29.5 20.5H23.8145V16.6546C23.8145 15.0332 24.6087 13.4531 27.1553 13.4531H29.7402V8.4082C29.7402 8.4082 27.3943 8.00781 25.1513 8.00781C20.4688 8.00781 17.4082 10.8458 17.4082 15.9836V20.5H12.2031V26.4258H17.4082V40.751C18.4678 40.917 19.5388 41.0003 20.6113 41C21.6839 41.0003 22.7548 40.9171 23.8145 40.751V26.4258H28.5911Z" fill="white"/>
</g>
<defs>
<clipPath id="clip0_391_246">
<rect width="41" height="41" fill="white" transform="translate(0.109375)"/>
</clipPath>
</defs>
</svg>
