<svg width="42" height="41" viewBox="0 0 42 41" fill="none" xmlns="http://www.w3.org/2000/svg">
<g clip-path="url(#clip0_391_249)">
<path d="M31.5 0H9.71875C4.41164 0 0.109375 4.30226 0.109375 9.60938V31.3906C0.109375 36.6977 4.41164 41 9.71875 41H31.5C36.8071 41 41.1094 36.6977 41.1094 31.3906V9.60938C41.1094 4.30226 36.8071 0 31.5 0Z" fill="url(#paint0_radial_391_249)"/>
<path d="M31.5 0H9.71875C4.41164 0 0.109375 4.30226 0.109375 9.60938V31.3906C0.109375 36.6977 4.41164 41 9.71875 41H31.5C36.8071 41 41.1094 36.6977 41.1094 31.3906V9.60938C41.1094 4.30226 36.8071 0 31.5 0Z" fill="url(#paint1_radial_391_249)"/>
<path d="M20.6108 4.48438C16.2613 4.48438 15.7153 4.50343 14.0071 4.58111C12.3021 4.65927 11.1382 4.92913 10.1199 5.3252C9.06643 5.73423 8.17292 6.28149 7.28277 7.17196C6.39182 8.06227 5.84457 8.95578 5.43425 10.0088C5.03706 11.0274 4.76688 12.1917 4.69016 13.896C4.61377 15.6043 4.59375 16.1505 4.59375 20.5002C4.59375 24.8498 4.61297 25.3941 4.69048 27.1023C4.76896 28.8073 5.03882 29.9712 5.43457 30.9894C5.84393 32.0429 6.39118 32.9365 7.28165 33.8266C8.17164 34.7176 9.06515 35.2661 10.1179 35.6751C11.1369 36.0712 12.3009 36.3411 14.0057 36.4192C15.714 36.4969 16.2595 36.5159 20.6089 36.5159C24.9589 36.5159 25.5031 36.4969 27.2113 36.4192C28.9164 36.3411 30.0815 36.0712 31.1006 35.6751C32.1536 35.2661 33.0458 34.7176 33.9357 33.8266C34.8266 32.9365 35.3737 32.0429 35.7842 30.9899C36.1778 29.9712 36.4482 28.807 36.5283 27.1026C36.605 25.3944 36.625 24.8498 36.625 20.5002C36.625 16.1505 36.605 15.6047 36.5283 13.8963C36.4482 12.1913 36.1778 11.0276 35.7842 10.0093C35.3737 8.95578 34.8266 8.06227 33.9357 7.17196C33.0449 6.28117 32.1539 5.73391 31.0996 5.32536C30.0786 4.92913 28.9141 4.65911 27.2091 4.58111C25.5007 4.50343 24.9568 4.48438 20.6059 4.48438H20.6108ZM19.1741 7.37055C19.6006 7.36991 20.0764 7.37055 20.6108 7.37055C24.8871 7.37055 25.3939 7.38593 27.0826 7.46264C28.6441 7.53407 29.4916 7.79497 30.0562 8.01422C30.8036 8.30442 31.3365 8.65148 31.8967 9.21219C32.4573 9.77273 32.8042 10.3065 33.0952 11.054C33.3144 11.6177 33.5756 12.4653 33.6467 14.0268C33.7234 15.7152 33.7401 16.2222 33.7401 20.4965C33.7401 24.7707 33.7234 25.2779 33.6467 26.9661C33.5753 28.5277 33.3144 29.3752 33.0952 29.9391C32.805 30.6866 32.4573 31.2188 31.8967 31.779C31.3362 32.3396 30.804 32.6865 30.0562 32.9768C29.4923 33.197 28.6441 33.4573 27.0826 33.5287C25.3942 33.6054 24.8871 33.6221 20.6108 33.6221C16.3343 33.6221 15.8274 33.6054 14.1392 33.5287C12.5777 33.4566 11.7302 33.1957 11.1651 32.9765C10.4178 32.6861 9.88387 32.3392 9.32332 31.7787C8.76278 31.2181 8.41588 30.6856 8.12488 29.9378C7.90562 29.3739 7.64441 28.5264 7.5733 26.9649C7.49658 25.2765 7.48121 24.7694 7.48121 20.4925C7.48121 16.2157 7.49658 15.7112 7.5733 14.0228C7.64473 12.4613 7.90562 11.6137 8.12488 11.0492C8.41524 10.3017 8.76278 9.76793 9.32348 9.20738C9.88403 8.64684 10.4178 8.29978 11.1653 8.00893C11.7298 7.78872 12.5777 7.52846 14.1392 7.45671C15.6167 7.38993 16.1892 7.36991 19.1741 7.36655V7.37055ZM29.16 10.0298C28.0989 10.0298 27.2381 10.8898 27.2381 11.951C27.2381 13.0121 28.0989 13.8729 29.16 13.8729C30.221 13.8729 31.0818 13.0121 31.0818 11.951C31.0818 10.89 30.221 10.0291 29.16 10.0291V10.0298ZM20.6108 12.2753C16.0688 12.2753 12.3862 15.958 12.3862 20.5002C12.3862 25.0424 16.0688 28.7232 20.6108 28.7232C25.153 28.7232 28.8344 25.0424 28.8344 20.5002C28.8344 15.9581 25.1527 12.2753 20.6105 12.2753H20.6108ZM20.6108 15.1615C23.5591 15.1615 25.9495 17.5515 25.9495 20.5002C25.9495 23.4485 23.5591 25.8388 20.6108 25.8388C17.6623 25.8388 15.2723 23.4485 15.2723 20.5002C15.2723 17.5515 17.6623 15.1615 20.6108 15.1615Z" fill="white"/>
</g>
<defs>
<radialGradient id="paint0_radial_391_249" cx="0" cy="0" r="1" gradientUnits="userSpaceOnUse" gradientTransform="translate(11 44.1578) rotate(-90) scale(40.634 37.7929)">
<stop stop-color="#FFDD55"/>
<stop offset="0.1" stop-color="#FFDD55"/>
<stop offset="0.5" stop-color="#FF543E"/>
<stop offset="1" stop-color="#C837AB"/>
</radialGradient>
<radialGradient id="paint1_radial_391_249" cx="0" cy="0" r="1" gradientUnits="userSpaceOnUse" gradientTransform="translate(-6.75829 2.95344) rotate(78.681) scale(18.1636 74.8711)">
<stop stop-color="#3771C8"/>
<stop offset="0.128" stop-color="#3771C8"/>
<stop offset="1" stop-color="#6600FF" stop-opacity="0"/>
</radialGradient>
<clipPath id="clip0_391_249">
<rect width="41" height="41" fill="white" transform="translate(0.109375)"/>
</clipPath>
</defs>
</svg>
