<svg width="33" height="26" viewBox="0 0 33 26" fill="none" xmlns="http://www.w3.org/2000/svg">
<path d="M7.501 21.1266C6.75242 21.1266 6.12787 20.8758 5.62737 20.3742C5.12687 19.8727 4.87608 19.2481 4.875 18.5006V2.62437C4.875 1.87687 5.12579 1.25287 5.62737 0.752375C6.12896 0.251875 6.7535 0.00108333 7.501 0H29.8756C30.6231 0 31.2477 0.250791 31.7493 0.752375C32.2508 1.25396 32.5011 1.8785 32.5 2.626V18.5006C32.5 19.2481 32.2498 19.8727 31.7493 20.3742C31.2488 20.8758 30.6242 21.1261 29.8756 21.125L7.501 21.1266ZM17.9091 12.0266L6.5 3.53275V18.499C6.5 18.7904 6.59371 19.0298 6.78112 19.2173C6.96854 19.4047 7.2085 19.4984 7.501 19.4984H29.8756C30.167 19.4984 30.4065 19.4047 30.5939 19.2173C30.7813 19.0298 30.875 18.7904 30.875 18.499V3.53275L19.4659 12.0234C19.2297 12.1989 18.9702 12.2866 18.6875 12.2866C18.4048 12.2866 18.1453 12.1989 17.9091 12.0234M18.6875 10.6307L30.563 1.81187C30.5002 1.74904 30.4325 1.70192 30.3599 1.6705C30.2862 1.63908 30.1871 1.62338 30.0625 1.62338H7.3125C7.2085 1.62338 7.1045 1.64937 7.0005 1.70137C6.8965 1.75337 6.81308 1.81079 6.75025 1.87362L18.6875 10.6307ZM2.626 25.9984C1.87742 25.9984 1.25288 25.7481 0.752375 25.2476C0.251875 24.7471 0.00108333 24.1231 0 23.3756V8.75063C0 8.51879 0.0774582 8.32542 0.232375 8.1705C0.387291 8.01558 0.580667 7.93813 0.8125 7.93813C1.04433 7.93813 1.23771 8.01558 1.39263 8.1705C1.54754 8.32542 1.625 8.51879 1.625 8.75063V23.3756C1.625 23.667 1.71871 23.9065 1.90613 24.0939C2.09354 24.2813 2.3335 24.375 2.626 24.375H25.8131C26.0439 24.375 26.2367 24.4525 26.3916 24.6074C26.5465 24.7623 26.6245 24.9557 26.6256 25.1875C26.6267 25.4193 26.5487 25.6127 26.3916 25.7676C26.2345 25.9225 26.0417 26 25.8131 26L2.626 25.9984ZM30.875 3.50675C30.875 3.20667 30.8387 2.90875 30.7661 2.613C30.6925 2.31725 30.6248 2.05075 30.563 1.8135C30.5002 1.75067 30.4325 1.70192 30.3599 1.6705C30.2862 1.63908 30.1871 1.62338 30.0625 1.62338H7.3125C7.2085 1.62338 7.1045 1.64937 7.0005 1.70137C6.8965 1.75337 6.81308 1.81079 6.75025 1.87362C6.68742 2.11196 6.63 2.37521 6.578 2.66013C6.526 2.94504 6.5 3.22725 6.5 3.50675V1.625H30.875V3.50675Z" fill="#F8B946"/>
</svg>
