<svg width="47" height="47" viewBox="0 0 47 47" fill="none" xmlns="http://www.w3.org/2000/svg">
<path d="M23.5006 43.5635C34.4575 43.5635 43.5646 34.4757 43.5646 23.4995C43.5646 12.5426 34.4374 3.43555 23.4805 3.43555C12.5051 3.43555 3.4375 12.5426 3.4375 23.4995C3.4375 34.4757 12.5244 43.5635 23.5006 43.5635ZM23.5015 40.2198C14.2156 40.2198 6.79884 32.7837 6.79884 23.4995C6.79884 14.2338 14.1955 6.77926 23.4805 6.77926C32.7454 6.77926 40.1999 14.2346 40.22 23.4995C40.2393 32.7845 32.7647 40.2198 23.4998 40.2198M18.7788 28.1424C23.3613 32.7451 29.2044 35.6557 32.6665 32.213C32.7891 32.0921 32.9009 31.9607 33.0005 31.8202C33.9052 30.8172 34.1612 29.4794 33.0005 28.6141C32.0957 27.9645 31.1323 27.2964 29.499 26.155C28.3584 25.3493 27.6106 25.5449 26.726 26.4303L25.9388 27.1974C25.7029 27.4139 25.3294 27.3946 25.0734 27.2369C24.3852 26.8239 23.2245 25.899 22.1225 24.7979C21.0407 23.7152 20.0579 22.4966 19.6836 21.847C19.5459 21.6304 19.4477 21.2762 19.723 21.0211L20.4901 20.1944C21.3756 19.2704 21.5719 18.562 20.7461 17.4013L18.3264 13.9787C17.4997 12.8179 16.3004 13.0345 14.9819 14.0181C14.8837 14.097 14.8056 14.1759 14.7267 14.2539C11.2647 17.716 14.1955 23.5583 18.7788 28.1416" fill="#F8B946"/>
</svg>
