<svg width="18" height="17" viewBox="0 0 18 17" fill="none" xmlns="http://www.w3.org/2000/svg">
<path d="M8.08663 1.04906C8.43899 0.258569 9.56101 0.258571 9.91337 1.04906L11.5278 4.67082C11.6731 4.99685 11.9812 5.22069 12.3362 5.25816L16.2796 5.67436C17.1402 5.7652 17.487 6.8323 16.844 7.41169L13.8984 10.0663C13.6333 10.3052 13.5156 10.6674 13.5896 11.0166L14.4124 14.8956C14.5919 15.7422 13.6842 16.4017 12.9345 15.9693L9.49962 13.9882C9.19041 13.8098 8.80959 13.8098 8.50038 13.9882L5.06548 15.9693C4.31578 16.4017 3.40805 15.7422 3.58762 14.8956L4.41036 11.0166C4.48443 10.6674 4.36674 10.3052 4.10158 10.0663L1.15596 7.41169C0.513045 6.8323 0.859768 5.7652 1.72045 5.67436L5.66383 5.25816C6.01881 5.22069 6.3269 4.99685 6.47223 4.67082L8.08663 1.04906Z" fill="#F8B946"/>
</svg>
