<svg width="91" height="91" viewBox="0 0 91 91" fill="none" xmlns="http://www.w3.org/2000/svg">
<path d="M44.3679 75.6132C44.8633 75.6132 45.3714 75.502 45.8921 75.2795C46.4128 75.0571 46.8337 74.7854 47.1547 74.4643L76.7146 44.9007C77.6676 43.9477 78.4031 42.9745 78.9213 41.9811C79.437 40.9826 79.6948 39.8881 79.6948 38.6975C79.6948 37.4918 79.437 36.3214 78.9213 35.1864C78.4031 34.0489 77.6676 33.0126 76.7146 32.0773L62.4958 17.8585C61.558 16.9056 60.5937 16.2066 59.6028 15.7617C58.6144 15.3168 57.5174 15.0944 56.3116 15.0944C55.121 15.0944 54.0151 15.3168 52.9939 15.7617C51.9727 16.2066 51.0109 16.9043 50.1085 17.8547L46.8021 21.1611L53.8167 28.1946C54.57 28.9352 55.1324 29.777 55.504 30.7199C55.8731 31.6627 56.0576 32.6195 56.0576 33.5902C56.0576 35.5643 55.4117 37.1973 54.12 38.489C52.8283 39.7807 51.1967 40.4253 49.225 40.4227C48.2518 40.4227 47.3026 40.2749 46.3775 39.9791C45.4523 39.6834 44.6194 39.1652 43.8787 38.4245L36.6253 31.1976L20.2529 47.5662C19.8712 47.9505 19.5843 48.3865 19.3922 48.8744C19.2001 49.3622 19.104 49.8551 19.104 50.3531C19.104 51.2479 19.3909 51.9848 19.9647 52.5637C20.536 53.145 21.269 53.4357 22.1639 53.4357C22.6593 53.4357 23.1674 53.3245 23.6881 53.1021C24.2088 52.8771 24.6297 52.6041 24.9507 52.2831L36.9665 40.2673L39.651 42.9518L27.6542 54.9714C27.27 55.3531 26.9818 55.7878 26.7897 56.2757C26.6001 56.7661 26.5053 57.259 26.5053 57.7544C26.5053 58.6012 26.8036 59.3229 27.4002 59.9195C27.9967 60.516 28.7184 60.8156 29.5652 60.8181C30.0606 60.8181 30.5687 60.7056 31.0895 60.4807C31.6102 60.2557 32.0311 59.9839 32.3521 59.6654L45.2437 46.7965L47.9282 49.4772L35.0555 62.3689C34.7193 62.6899 34.4438 63.1108 34.229 63.6315C34.0116 64.1522 33.9029 64.6603 33.9029 65.1558C33.9029 66.0001 34.2024 66.7205 34.8015 67.317C35.3981 67.9186 36.1197 68.2194 36.9665 68.2194C37.462 68.2194 37.9549 68.1234 38.4453 67.9313C38.9357 67.7392 39.3705 67.451 39.7496 67.0668L52.6413 54.1941L55.3258 56.8786L42.4341 69.7702C42.0524 70.1545 41.7655 70.6158 41.5734 71.1542C41.3813 71.6926 41.2852 72.1843 41.2852 72.6292C41.2852 73.524 41.6 74.2457 42.2294 74.7942C42.8588 75.3427 43.5716 75.617 44.3679 75.617M44.3451 79.4087C42.3962 79.4087 40.7279 78.6958 39.3401 77.2701C37.9524 75.842 37.3432 74.0801 37.5125 71.9846C35.3639 72.0099 33.5755 71.3691 32.1473 70.0622C30.7191 68.7528 30.0404 66.9277 30.1112 64.587C27.7705 64.6123 25.9252 63.9424 24.5754 62.5774C23.2255 61.2124 22.6113 59.4152 22.7326 57.1857C20.6245 57.211 18.8601 56.6169 17.4395 55.4036C16.0214 54.1953 15.3123 52.5118 15.3123 50.3531C15.3123 49.3799 15.5007 48.4067 15.8773 47.4335C16.2539 46.4578 16.81 45.6009 17.5456 44.8628L36.6253 25.8059L46.4154 35.5959C46.7364 35.9321 47.1333 36.2089 47.606 36.4263C48.0786 36.6437 48.6107 36.7511 49.2022 36.7486C50.0137 36.7486 50.7303 36.4655 51.3521 35.8993C51.974 35.3331 52.2861 34.5949 52.2887 33.6849C52.2887 33.0934 52.18 32.5626 51.9626 32.0924C51.7452 31.6197 51.4697 31.2229 51.136 30.9019L38.0927 17.8585C37.1523 16.9056 36.1753 16.2066 35.1617 15.7617C34.1481 15.3168 33.0384 15.0944 31.8326 15.0944C30.642 15.0944 29.5602 15.3168 28.587 15.7617C27.6163 16.2066 26.6545 16.9056 25.7015 17.8585L14.1597 29.4231C13.3457 30.232 12.6885 31.1989 12.188 32.3237C11.6875 33.4461 11.4221 34.6051 11.3917 35.8007C11.3665 36.6576 11.4398 37.4804 11.6117 38.2691C11.7836 39.0577 12.0616 39.8009 12.4458 40.4986L9.57175 43.3727C8.93475 42.3565 8.43678 41.1861 8.07783 39.8616C7.71889 38.537 7.55332 37.1847 7.58112 35.8045C7.61146 34.0805 7.9565 32.4312 8.61625 30.8564C9.276 29.2816 10.2214 27.8774 11.4524 26.6438L22.9222 15.174C24.2442 13.8646 25.6434 12.8914 27.1196 12.2544C28.5958 11.62 30.1921 11.3027 31.9085 11.3027C33.6248 11.3027 35.2072 11.6212 36.6556 12.2582C38.1066 12.8927 39.4867 13.8646 40.7961 15.174L44.0949 18.4766L47.4012 15.174C48.7232 13.8646 50.1097 12.8914 51.5607 12.2544C53.0116 11.62 54.5953 11.3027 56.3116 11.3027C58.028 11.3027 59.6243 11.6212 61.1005 12.2582C62.5742 12.8927 63.9645 13.8646 65.2713 15.174L79.3991 29.298C80.7059 30.6048 81.7145 32.0722 82.4248 33.7001C83.1351 35.328 83.489 37.0001 83.4865 38.7165C83.4865 40.4354 83.1326 42.019 82.4248 43.4674C81.7171 44.9159 80.7085 46.296 79.3991 47.6079L49.8355 77.145C49.0493 77.9337 48.1924 78.5075 47.2647 78.8664C46.3395 79.2254 45.3663 79.4049 44.3451 79.4049" fill="#F8B946"/>
</svg>
