<svg width="83" height="83" viewBox="0 0 83 83" fill="none" xmlns="http://www.w3.org/2000/svg">
<path d="M36.3125 19.0202C36.3125 18.5616 36.4947 18.1218 36.819 17.7975C37.1432 17.4732 37.5831 17.291 38.0417 17.291H44.9583C45.4169 17.291 45.8568 17.4732 46.181 17.7975C46.5053 18.1218 46.6875 18.5616 46.6875 19.0202C46.6875 19.4788 46.5053 19.9186 46.181 20.2429C45.8568 20.5672 45.4169 20.7493 44.9583 20.7493H38.0417C37.5831 20.7493 37.1432 20.5672 36.819 20.2429C36.4947 19.9186 36.3125 19.4788 36.3125 19.0202Z" fill="#F8B946"/>
<path fill-rule="evenodd" clip-rule="evenodd" d="M57.6943 32.0242C57.0666 32.517 56.2522 32.9112 55.27 33.2311C55.3138 33.6761 55.3357 34.1268 55.3357 34.5833C55.335 36.4565 54.9538 38.31 54.2154 40.0314C53.4769 41.7529 52.3965 43.3064 51.0397 44.5978C49.6829 45.8893 48.078 46.8917 46.3222 47.5443C44.5664 48.197 42.6964 48.4862 40.8255 48.3946C38.9546 48.3029 37.1218 47.8323 35.4382 47.0111C33.7546 46.19 32.2554 45.0355 31.0313 43.6176C29.8072 42.1997 28.8839 40.548 28.3172 38.7626C27.7506 36.9772 27.5524 35.0954 27.7348 33.2311C26.7526 32.9112 25.9382 32.517 25.3122 32.0242C24.4995 31.3844 23.9548 30.5302 23.8908 29.503C23.8303 28.5503 24.2073 27.741 24.5842 27.1704C24.9562 26.6298 25.3981 26.1408 25.8984 25.7162C26.1428 25.5041 26.3768 25.3156 26.6004 25.1507C26.5336 24.7945 26.4632 24.368 26.3895 23.8711C26.0847 21.6913 25.9345 19.4927 25.9399 17.2917C25.9399 16.7487 26.1716 16.3441 26.2788 16.1729C26.4137 15.9567 26.5728 15.7717 26.718 15.623C27.0068 15.3204 27.3803 15.0126 27.7901 14.7169C28.6201 14.1152 29.7613 13.4391 31.117 12.8062C33.8197 11.5439 37.5322 10.375 41.5024 10.375C45.4726 10.375 49.1851 11.5456 51.8878 12.8062C53.0534 13.339 54.1671 13.9787 55.2147 14.7169C55.6245 15.0126 55.998 15.3221 56.2868 15.623C56.432 15.7717 56.5911 15.9567 56.726 16.1729C56.8332 16.3441 57.0649 16.7487 57.0649 17.2917C57.0649 20.0618 56.8401 22.3063 56.6153 23.8711C56.5415 24.3691 56.4712 24.7957 56.4043 25.1507C56.6257 25.315 56.866 25.5035 57.1081 25.7162C57.5404 26.0949 58.035 26.5877 58.4206 27.1704C58.7992 27.741 59.1745 28.5503 59.1157 29.5048C59.0517 30.5302 58.507 31.3844 57.6943 32.0242ZM29.4017 17.8415C29.4276 20.1725 29.6213 22.0573 29.8132 23.3749C29.8593 23.6861 29.9031 23.9639 29.9446 24.2083H53.0601C53.1028 23.9628 53.1466 23.685 53.1916 23.3749C53.3818 22.0573 53.5772 20.1725 53.6031 17.8415C53.4684 17.7279 53.3294 17.6195 53.1864 17.5165C52.5621 17.0651 51.6146 16.4963 50.4249 15.9412C48.0334 14.8241 44.8293 13.8333 41.5024 13.8333C38.1755 13.8333 34.9713 14.8241 32.5799 15.9412C31.3902 16.4963 30.4426 17.0651 29.8201 17.5147C29.6765 17.6188 29.5369 17.7284 29.4017 17.8433M29.0316 27.6667L29.0264 27.6701C28.7279 27.8689 28.4421 28.086 28.1705 28.3203C27.8627 28.59 27.6172 28.8529 27.4685 29.0811C27.4339 29.133 27.4021 29.1867 27.3734 29.2419L27.4494 29.3059C27.7088 29.51 28.2656 29.8091 29.3515 30.1048C29.5659 30.1624 29.7959 30.2189 30.0415 30.2743L30.057 30.2777C30.9251 30.4696 31.9937 30.6408 33.2958 30.7757C35.1408 30.9676 37.4631 31.0939 40.3646 31.1215L41.5024 31.125C47.0824 31.125 50.6912 30.7774 52.9495 30.2777L52.9633 30.2743C53.21 30.2201 53.4406 30.1636 53.655 30.1048C54.7392 29.8108 55.2977 29.51 55.5553 29.3059L55.6314 29.2419C55.6032 29.1867 55.572 29.133 55.538 29.0811C55.3362 28.7991 55.0997 28.5435 54.8343 28.3203C54.5633 28.0861 54.278 27.8689 53.9801 27.6701L53.9731 27.6667H29.0316ZM41.0321 34.5833C45.6005 34.5833 49.1418 34.3412 51.8566 33.9193C51.8705 34.1384 51.8774 34.3597 51.8774 34.5833C51.8762 35.968 51.5978 37.3383 51.0587 38.6137C50.5196 39.889 49.7306 41.0436 48.7384 42.0093C47.7461 42.975 46.5706 43.7323 45.281 44.2366C43.9915 44.7409 42.6141 44.9819 41.23 44.9456C39.8458 44.9092 38.483 44.5962 37.2217 44.0249C35.9604 43.4536 34.8263 42.6356 33.886 41.6192C32.9458 40.6027 32.2186 39.4083 31.7472 38.1064C31.2758 36.8045 31.0698 35.4214 31.1412 34.0386C33.671 34.3879 36.9132 34.5833 41.0321 34.5833ZM27.8039 67.2248C27.7134 67.8681 27.6684 68.517 27.6691 69.1667V70.8958C27.6692 71.276 27.5442 71.6456 27.3132 71.9475C27.0822 72.2494 26.7582 72.4667 26.3912 72.5659C26.0243 72.6652 25.6349 72.6407 25.2832 72.4963C24.9316 72.352 24.6373 72.0958 24.4459 71.7673C23.28 72.3978 21.9169 72.5581 20.6365 72.2152L17.2958 71.3195C15.9674 70.9629 14.8349 70.0933 14.1475 68.902C13.4601 67.7107 13.2739 66.2951 13.6299 64.9665L14.9718 59.9554C15.328 58.6267 16.1974 57.4938 17.3888 56.806C18.5802 56.1183 19.9959 55.9319 21.3247 56.2878L24.6655 57.1818C25.8275 57.4931 26.7924 58.1761 27.4633 59.0683C29.0643 56.8405 31.1729 55.0261 33.6146 53.7752C36.0562 52.5243 38.7607 51.8729 41.5041 51.875C44.2461 51.8736 46.949 52.525 49.3893 53.7752C51.8297 55.0255 53.9373 56.8387 55.538 59.0649C56.2343 58.1444 57.2176 57.4823 58.3324 57.1835L61.6731 56.2896C63.0017 55.9335 64.4173 56.1197 65.6086 56.8071C66.7999 57.4946 67.6695 58.627 68.0261 59.9554L69.3696 64.9683C69.5459 65.6263 69.5908 66.3127 69.5017 66.9881C69.4127 67.6635 69.1915 68.3148 68.8508 68.9047C68.5101 69.4946 68.0565 70.0117 67.5159 70.4263C66.9754 70.8409 66.3584 71.145 65.7003 71.3212L62.3613 72.2152C61.0832 72.5583 59.7223 72.3999 58.5572 71.7725C58.3652 72.1005 58.0705 72.3561 57.7187 72.4998C57.3669 72.6434 56.9775 72.6672 56.6108 72.5674C56.2441 72.4676 55.9205 72.2498 55.69 71.9477C55.4596 71.6455 55.335 71.2759 55.3357 70.8958V69.1667C55.3364 68.517 55.2913 67.8681 55.2008 67.2248L46.2023 69.637C45.7846 70.5311 45.1205 71.2874 44.288 71.8174C43.4556 72.3473 42.4892 72.6287 41.5024 72.6287C40.5156 72.6287 39.5492 72.3473 38.7167 71.8174C37.8843 71.2874 37.2202 70.5311 36.8025 69.637L27.8039 67.2248ZM36.5224 65.9798C36.7536 65.1911 37.1689 64.4685 37.7341 63.8718C38.2993 63.275 38.9982 62.8211 39.7732 62.5474V55.4405C37.3479 55.7473 35.0469 56.6906 33.1041 58.1745C31.1613 59.6584 29.6459 61.6301 28.7117 63.8893L36.5224 65.9798ZM54.293 63.8875C53.3587 61.6287 51.8431 59.6573 49.9003 58.1738C47.9575 56.6902 45.6567 55.7472 43.2316 55.4405V62.5457C44.7947 63.099 46.0155 64.3786 46.4824 65.9815L54.293 63.8875ZM58.0056 62.6425C57.9467 62.4232 57.9317 62.1944 57.9613 61.9692C57.9909 61.744 58.0645 61.5269 58.178 61.3302C58.2916 61.1335 58.4427 60.9611 58.6229 60.8228C58.8031 60.6845 59.0087 60.5831 59.2281 60.5243L62.5688 59.6286C63.0116 59.5103 63.4832 59.5726 63.8801 59.8018C64.277 60.031 64.5666 60.4085 64.6853 60.8511L66.0289 65.8622C66.0877 66.0816 66.1028 66.3104 66.0732 66.5356C66.0436 66.7607 65.9699 66.9779 65.8564 67.1746C65.7429 67.3713 65.5917 67.5437 65.4115 67.682C65.2314 67.8202 65.0257 67.9217 64.8064 67.9805L61.4656 68.8762C61.2461 68.935 61.0172 68.95 60.792 68.9203C60.5667 68.8905 60.3495 68.8167 60.1528 68.703C59.9561 68.5893 59.7837 68.438 59.6455 68.2576C59.5073 68.0773 59.406 67.8714 59.3474 67.6519L58.0056 62.6425ZM20.4308 59.6286C20.2113 59.5695 19.9823 59.5542 19.7569 59.5837C19.5316 59.6132 19.3142 59.6868 19.1173 59.8003C18.9204 59.9139 18.7479 60.0651 18.6095 60.2454C18.4711 60.4257 18.3696 60.6315 18.3108 60.8511L16.969 65.8605C16.9101 66.0799 16.8951 66.3087 16.9247 66.5338C16.9543 66.759 17.0279 66.9762 17.1415 67.1729C17.255 67.3696 17.4061 67.542 17.5863 67.6802C17.7665 67.8185 17.9721 67.9199 18.1915 67.9787L21.5322 68.8744C21.7516 68.9333 21.9804 68.9483 22.2056 68.9187C22.4307 68.8891 22.6479 68.8155 22.8446 68.702C23.0413 68.5884 23.2137 68.4373 23.352 68.2571C23.4903 68.0769 23.5917 67.8713 23.6505 67.6519L24.9923 62.6408C25.0514 62.4213 25.0667 62.1923 25.0372 61.967C25.0077 61.7416 24.9341 61.5243 24.8206 61.3274C24.707 61.1305 24.5558 60.9579 24.3755 60.8195C24.1952 60.6811 23.9893 60.5796 23.7698 60.5208L20.4308 59.6286ZM43.2316 67.4375C43.2316 67.8961 43.0494 68.3359 42.7251 68.6602C42.4008 68.9845 41.961 69.1667 41.5024 69.1667C41.0438 69.1667 40.604 68.9845 40.2797 68.6602C39.9554 68.3359 39.7732 67.8961 39.7732 67.4375C39.7732 66.9789 39.9554 66.5391 40.2797 66.2148C40.604 65.8905 41.0438 65.7083 41.5024 65.7083C41.961 65.7083 42.4008 65.8905 42.7251 66.2148C43.0494 66.5391 43.2316 66.9789 43.2316 67.4375Z" fill="#F8B946"/>
</svg>
