<svg width="72" height="72" viewBox="0 0 72 72" fill="none" xmlns="http://www.w3.org/2000/svg">
<path d="M40.6575 36.0003H31.365C30.8016 35.9944 30.2634 35.7662 29.8673 35.3655C29.4712 34.9648 29.2494 34.424 29.25 33.8605V29.1378C29.2494 28.5744 29.4712 28.0335 29.8673 27.6328C30.2634 27.2321 30.8016 27.004 31.365 26.998H40.635C41.796 26.998 42.75 27.9655 42.75 29.1378V33.8583C42.7548 34.1366 42.7042 34.4132 42.6014 34.6718C42.4985 34.9305 42.3453 35.1662 42.1507 35.3652C41.956 35.5642 41.7238 35.7227 41.4675 35.8313C41.2112 35.9399 40.9359 35.9966 40.6575 35.998" fill="#F8B946"/>
<path d="M51.7524 9.00003H40.5001V9.35103L51.0751 13.7363C51.2077 13.7846 51.3288 13.8599 51.4308 13.9574C51.5327 14.0549 51.6133 14.1725 51.6675 14.3028C51.7216 14.4331 51.7481 14.5732 51.7453 14.7143C51.7425 14.8553 51.7104 14.9943 51.6511 15.1223C51.5131 15.388 51.2785 15.5907 50.9956 15.6886C50.7126 15.7866 50.4029 15.7723 50.1301 15.6488L40.5001 11.655V15.8468C48.1051 16.7063 54.0001 23.1525 54.0001 30.9893V63.0428C54.0013 63.9237 53.8287 64.7963 53.4922 65.6104C53.1557 66.4246 52.6619 67.1643 52.0391 67.7874C51.4162 68.4104 50.6766 68.9045 49.8626 69.2412C49.0486 69.578 48.1761 69.7509 47.2951 69.75H14.6251C13.6576 69.75 13.2751 68.8275 13.5001 67.8825L18.0001 51.75V24.75C18.0001 13.6283 27.0721 4.50003 38.2501 4.50003H51.7299C52.3266 4.49704 52.9001 4.73124 53.3242 5.15108C53.7482 5.57093 53.9882 6.14204 53.9911 6.73878C53.9941 7.33552 53.7599 7.909 53.3401 8.33306C52.9202 8.75713 52.3491 8.99704 51.7524 9.00003ZM49.5001 30.9893C49.5019 29.579 49.2256 28.1823 48.6869 26.879C48.1483 25.5757 47.3579 24.3914 46.361 23.3939C45.3642 22.3964 44.1804 21.6053 42.8774 21.0658C41.5744 20.5264 40.1779 20.2491 38.7676 20.25H33.2326C31.8224 20.2491 30.4258 20.5264 29.1229 21.0658C27.8199 21.6053 26.6361 22.3964 25.6393 23.3939C24.6424 24.3914 23.852 25.5757 23.3134 26.879C22.7747 28.1823 22.4984 29.579 22.5001 30.9893V47.25H49.5001V30.9893ZM22.5001 51.75C22.5001 51.75 24.9909 60.6533 26.2689 65.25H47.2951C48.5191 65.25 49.5001 64.2623 49.5001 63.045V49.5H22.5001V51.75ZM29.2816 11.844C26.6569 13.6797 24.6446 16.2619 23.5059 19.2555C25.6423 17.4795 28.2255 16.3245 30.9736 15.9165C30.3658 15.44 29.8909 14.815 29.5946 14.1018C29.2982 13.3885 29.1905 12.611 29.2816 11.844ZM33.7366 14.4C34.1932 14.4015 34.6395 14.2647 35.0168 14.0077C35.3941 13.7506 35.6848 13.3854 35.8506 12.9601C36.0164 12.5347 36.0496 12.0691 35.9458 11.6245C35.8419 11.1799 35.606 10.7772 35.2689 10.4693L33.7614 12.1725V9.90003C33.465 9.89855 33.1712 9.95565 32.8969 10.0681C32.6226 10.1805 32.3733 10.346 32.1631 10.555C31.953 10.7641 31.7863 11.0127 31.6725 11.2864C31.5587 11.5601 31.5001 11.8536 31.5001 12.15C31.5001 13.401 32.4811 14.4 33.7366 14.4Z" fill="#F8B946"/>
</svg>
